<?xml version="1.0" standalone="no"?>
<!DOCTYPE svg PUBLIC "-//W3C//DTD SVG 1.1//EN" "http://www.w3.org/Graphics/SVG/1.1/DTD/svg11.dtd">
<svg t="1705308822940" class="icon" viewBox="0 0 1024 1024" version="1.1"
  xmlns="http://www.w3.org/2000/svg" p-id="28807" xmlns:xlink="http://www.w3.org/1999/xlink"
  width="200" height="200">
  <path
    d="M301.176471 141.071059a170.646588 170.646588 0 0 1 170.646588 170.646588V482.484706H301.176471a170.646588 170.646588 0 0 1 0-341.353412z m0 421.647059h170.646588v170.646588A170.706824 170.706824 0 1 1 301.176471 562.718118z m421.647058-421.647059a170.706824 170.706824 0 0 1 0 341.353412H552.176941V311.717647A170.646588 170.646588 0 0 1 722.823529 141.071059z m-170.646588 421.647059H722.823529a170.646588 170.646588 0 1 1-170.646588 170.646588V562.718118z"
    fill="#1296db" p-id="28808" data-spm-anchor-id="a313x.search_index.0.i10.3e113a81Aujf34"
    class="selected"></path>
</svg>