<?xml version="1.0" standalone="no"?><!DOCTYPE svg PUBLIC "-//W3C//DTD SVG 1.1//EN" "http://www.w3.org/Graphics/SVG/1.1/DTD/svg11.dtd"><svg t="1705312603281" class="icon" viewBox="0 0 1185 1024" version="1.1" xmlns="http://www.w3.org/2000/svg" p-id="34823" xmlns:xlink="http://www.w3.org/1999/xlink" width="231.4453125" height="200"><path d="M1007.508211 392.515368a458.644211 458.644211 0 0 0-89.896422-14.389894c-17.515789-67.691789-55.511579-129.940211-111.184842-180.601263C726.501053 124.981895 620.058947 84.992 506.610526 84.992c-113.448421 0-219.890526 39.989895-299.816421 112.532211-78.740211 71.410526-122.071579 166.211368-122.071579 266.778947 0 97.010526 40.690526 189.44 114.79579 260.096 5.389474 5.281684 17.623579 19.994947 12.557473 44.409263-0.916211 4.742737-2.694737 10.078316-5.173894 16.707368-3.557053 9.162105-8.730947 20.426105-14.174316 32.336843-3.287579 7.275789-8.192 17.893053-12.880842 28.618105 18.324211-6.197895 38.750316-14.982737 56.751158-22.63579 44.193684-18.970947 64.296421-27.594105 86.447158-17.893052a457.027368 457.027368 0 0 0 184.751158 37.726316 333.608421 333.608421 0 0 0 46.241684 79.710315c-0.161684 2.479158-0.323368 3.557053-0.538948 3.018106-15.467789 1.347368-30.989474 1.994105-46.618947 1.994105-71.68 0-140.665263-13.365895-205.446737-39.774316-8.353684 3.233684-21.234526 8.623158-31.258947 12.988632-23.498105 10.078316-50.122105 21.504-75.075369 29.049263-14.713263 4.473263-31.797895 8.730947-48.505263 8.730947-14.012632 0-27.971368-3.018105-40.151579-11.264-9.269895-6.197895-24.522105-21.018947-23.174737-50.499368a126.652632 126.652632 0 0 1 7.006316-34.169263c6.359579-19.941053 16.545684-41.930105 25.438316-61.278316l6.898526-15.090527C43.385263 682.900211 0 576.296421 0 464.195368c0-63.056842 13.473684-124.335158 40.421053-182.16421a465.650526 465.650526 0 0 1 109.514105-147.509895C245.328842 47.750737 372.197053 0 506.718316 0c134.575158 0 261.389474 47.696842 356.837052 134.682947 46.942316 42.576842 83.644632 92.16 109.514106 147.509895 16.491789 35.570526 28.025263 72.434526 34.492631 110.322526zM299.169684 314.206316a63.595789 63.595789 0 1 1 127.245474 0 63.595789 63.595789 0 0 1-127.245474 0z m288.336842 0a63.595789 63.595789 0 1 1 127.191579 0 63.595789 63.595789 0 0 1-127.191579 0z" fill="#00C600" p-id="34824"></path><path d="M1075.361684 643.772632a76.368842 76.368842 0 0 0-33.953684 19.509894h-0.215579a73.404632 73.404632 0 0 0-21.557895 44.732632 228.028632 228.028632 0 0 1-71.68 127.461053 17.623579 17.623579 0 0 0-0.538947 24.953263l0.161684 0.161684a18.378105 18.378105 0 0 0 25.869474 0.215579c0.862316-0.916211 1.562947-1.616842 2.101895-2.694737a233.256421 233.256421 0 0 1 139.264-70.440421c40.421053-10.778947 64.134737-51.685053 53.301894-91.297684a75.722105 75.722105 0 0 0-92.752842-52.601263z" fill="#3572FF" p-id="34825"></path><path d="M734.639158 781.150316a17.623579 17.623579 0 0 0-0.323369 24.953263c0.700632 0.862316 1.616842 1.616842 2.640843 2.155789A228.621474 228.621474 0 0 1 808.421053 945.690947a75.560421 75.560421 0 0 0 92.698947 52.224 74.374737 74.374737 0 0 0 53.140211-90.812631c0-0.161684-0.215579-0.377263-0.215579-0.700632a75.183158 75.183158 0 0 0-64.943158-54.541473 231.909053 231.909053 0 0 1-128.808421-70.979369 18.701474 18.701474 0 0 0-25.70779 0.215579z" fill="#FF5800" p-id="34826"></path><path d="M791.444211 569.451789l-1.239579 1.239579a231.909053 231.909053 0 0 1-141.41979 72.919579 73.943579 73.943579 0 0 0-33.414737 124.604632 76.314947 76.314947 0 0 0 106.873263-0.161684c12.072421-12.072421 19.671579-27.809684 21.557895-44.624842a228.567579 228.567579 0 0 1 72.111158-127.407158 17.785263 17.785263 0 0 0 1.616842-24.953263l-0.215579-0.215579a18.593684 18.593684 0 0 0-25.869473-1.401264z" fill="#FFCC00" p-id="34827"></path><path d="M861.561263 433.852632a74.213053 74.213053 0 0 0-33.091368 19.132631 73.835789 73.835789 0 0 0-0.700632 104.448l0.862316 0.862316c12.234105 12.072421 28.133053 19.456 45.109895 21.39621 49.583158 9.054316 94.854737 33.845895 129.024 70.602106a18.108632 18.108632 0 0 0 25.49221 0.215579 17.623579 17.623579 0 0 0-2.479158-27.432421 228.190316 228.190316 0 0 1-71.464421-137.32379c-10.778947-39.666526-52.385684-62.841263-92.752842-51.846737z" fill="#00C200" p-id="34828"></path></svg>