<?xml version="1.0" standalone="no"?><!DOCTYPE svg PUBLIC "-//W3C//DTD SVG 1.1//EN" "http://www.w3.org/Graphics/SVG/1.1/DTD/svg11.dtd"><svg t="1705312737502" class="icon" viewBox="0 0 1024 1024" version="1.1" xmlns="http://www.w3.org/2000/svg" p-id="39435" xmlns:xlink="http://www.w3.org/1999/xlink" width="200" height="200"><path d="M925.866667 153.6c-8.533333-8.533333-23.466667-12.8-34.133334-8.533333L117.333333 330.666667c-12.8-4.266667-23.466667 8.533333-27.733333 23.466666-4.266667 12.8 0 29.866667 6.4 29.866667l142.933333 142.933333c12.8 10.666667 29.866667 12.8 42.666667 2.133334L725.333333 281.6l12.8 10.666667-413.866666 277.333333c-6.4 4.266667-10.666667 10.666667-10.666667 19.2L277.333333 740.266667c-4.266667 14.933333 2.133333 29.866667 12.8 38.4 10.666667 8.533333 25.6 8.533333 36.266667 2.133333l102.4-64 140.8 149.333333c4.266667 6.4 10.666667 10.666667 19.2 10.666667l12.8 4.266667c14.933333-4.266667 23.466667-8.533333 27.733333-23.466667l298.666667-661.333333c6.4-19.2 10.666667-34.133333-2.133333-42.666667z" fill="#00d6b9" p-id="39436"></path></svg>